<?xml version="1.0" encoding="UTF-8"?>
<svg version="1.1" xmlns="http://www.w3.org/2000/svg" width="512" height="512">
<path d="M0 0 C3.49852017 2.84401665 7.07448724 5.58898921 10.63964844 8.34863281 C12.16980986 9.53716007 13.699756 10.72596454 15.22949219 11.91503906 C16.37973877 12.80860107 16.37973877 12.80860107 17.55322266 13.72021484 C19.89681897 15.5417059 22.23914271 17.36482058 24.58105469 19.18847656 C31.171884 24.32014562 37.76449846 29.44881564 44.38964844 34.53613281 C53.37492364 41.43574188 62.30407832 48.407644 71.2421875 55.36816406 C82.29663557 63.97706031 82.29663557 63.97706031 93.38964844 72.53613281 C125.76829343 97.41440814 154.98009768 120.67863817 162.46834183 163.12017632 C163.35713907 170.32654963 163.18492642 177.59877797 163.18017578 184.84887695 C163.18616988 186.68334219 163.19297744 188.51780492 163.20053101 190.3522644 C163.21811179 195.30928874 163.22288312 200.2662439 163.22416258 205.2232964 C163.22558962 208.32930092 163.22986972 211.43528817 163.23515701 214.54128838 C163.25363346 225.40310648 163.26183091 236.26487568 163.26025391 247.12670898 C163.25905425 257.20876282 163.28012836 267.29060199 163.31174123 277.37260157 C163.3380063 286.06263951 163.34861688 294.7526078 163.34734309 303.44268507 C163.34683631 308.61759374 163.35236031 313.79231156 163.37369919 318.96718025 C163.39325402 323.84208828 163.39308985 328.71662683 163.37866592 333.59154892 C163.37659768 335.36587892 163.38115792 337.14023311 163.39338684 338.91452217 C163.59909857 370.86858145 152.14099144 397.51266076 130.20214844 420.59863281 C108.285173 441.94062587 79.83934711 452.05163718 49.54199219 451.96972656 C48.03080515 451.97430378 46.51962018 451.97961383 45.00843811 451.98561096 C41.87476008 451.99445096 38.74133826 451.99221781 35.60766602 451.98217773 C31.60301713 451.97059234 27.59923763 451.9910898 23.59470272 452.02009487 C20.48820968 452.03845755 17.38192622 452.03816617 14.27539253 452.03245735 C12.79827195 452.03230471 11.32113667 452.03830133 9.84406853 452.05074883 C7.78440331 452.06569154 5.72636361 452.05496775 3.66674805 452.0378418 C2.4995372 452.03767563 1.33232635 452.03750946 0.12974548 452.03733826 C-5.04203241 451.23732418 -7.90448048 448.79946148 -11.45321655 445.08163452 C-13.96068058 439.71682239 -13.66416322 434.66084324 -13.62451172 428.80810547 C-13.63519936 426.88487457 -13.63519936 426.88487457 -13.64610291 424.92279053 C-13.66141102 422.13992941 -13.66425375 419.35743683 -13.65733719 416.574543 C-13.64650478 412.15887458 -13.66399177 407.74358686 -13.68515015 403.32797241 C-13.71539763 396.32777068 -13.72710194 389.32768224 -13.7307266 382.32742059 C-13.7373606 369.83420216 -13.76677757 357.34106534 -13.81582296 344.84794271 C-13.83215396 340.47468921 -13.83749706 336.10159887 -13.83449072 331.72831833 C-13.82693195 305.14252805 -13.94509164 282.63428729 -33.26660156 262.26269531 C-45.48691184 250.70653233 -61.26503039 244.38836684 -78.11035156 244.53613281 C-93.85137053 245.3491305 -107.02984432 250.3588564 -119.11035156 260.53613281 C-119.75359375 261.06722656 -120.39683594 261.59832031 -121.05957031 262.14550781 C-134.06558629 273.9532167 -138.99368209 290.60600525 -140.11035156 307.53613281 C-140.42470628 316.30678462 -140.39075167 325.08545138 -140.38474655 333.86067581 C-140.38187533 338.27431857 -140.39639992 342.68780628 -140.41372681 347.10140991 C-140.46041204 359.63805924 -140.48471955 372.1746931 -140.49121094 384.71142578 C-140.49496296 391.66500691 -140.51298608 398.61840751 -140.5463053 405.57191122 C-140.56646107 409.95589807 -140.56892108 414.33941771 -140.55802512 418.72343183 C-140.55480273 422.08509451 -140.57751051 425.44649496 -140.59619141 428.80810547 C-140.58393272 430.61754135 -140.58393272 430.61754135 -140.57142639 432.46353149 C-140.67471052 442.88914145 -140.67471052 442.88914145 -145.11035156 447.53613281 C-149.39144969 451.07949258 -152.30677066 452.0385113 -157.82397461 452.05371094 C-159.80345345 452.0726239 -159.80345345 452.0726239 -161.82292175 452.09191895 C-163.25597667 452.084749 -164.68902673 452.07654252 -166.12207031 452.06738281 C-167.61497754 452.07008362 -169.10788304 452.07397092 -170.6007843 452.07897949 C-173.73378201 452.08487064 -176.86632313 452.07634042 -179.99926758 452.05761719 C-183.95761418 452.03508085 -187.91487057 452.04816049 -191.87317753 452.07138538 C-226.80255278 452.24540405 -256.79360616 445.8969039 -283.11035156 421.53613281 C-283.91988281 420.8078125 -284.72941406 420.07949219 -285.56347656 419.32910156 C-300.46885321 405.2836505 -310.32441686 386.31693665 -315.11035156 366.53613281 C-315.28383432 365.82524285 -315.45731709 365.11435289 -315.6360569 364.38192081 C-317.54319618 355.37396338 -317.40687868 346.37984269 -317.40087891 337.22338867 C-317.40687301 335.38892343 -317.41368056 333.5544607 -317.42123413 331.72000122 C-317.43881492 326.76297689 -317.44358625 321.80602172 -317.4448657 316.84896922 C-317.44629274 313.7429647 -317.45057284 310.63697746 -317.45586014 307.53097725 C-317.47433659 296.66915914 -317.48253404 285.80738994 -317.48095703 274.94555664 C-317.47975737 264.8635028 -317.50083149 254.78166363 -317.53244436 244.69966406 C-317.55870943 236.00962611 -317.56932001 227.31965782 -317.56804621 218.62958056 C-317.56753944 213.45467189 -317.57306343 208.27995406 -317.59440231 203.10508537 C-317.61395715 198.23017734 -317.61379297 193.35563879 -317.59936905 188.48071671 C-317.59730081 186.70638671 -317.60186105 184.93203251 -317.61408997 183.15774345 C-317.80831209 152.98841238 -307.18023145 125.30032195 -286.11035156 103.53613281 C-279.17120916 96.62651868 -271.55842635 90.6413406 -263.74560547 84.76855469 C-261.12393801 82.79271454 -258.52416669 80.78865464 -255.92285156 78.78613281 C-255.13261597 78.17850098 -255.13261597 78.17850098 -254.32641602 77.55859375 C-246.56232654 71.58392457 -238.83983737 65.55544181 -231.11035156 59.53613281 C-221.92389093 52.38220996 -212.73198429 45.23680939 -203.49707031 38.14550781 C-196.34281383 32.64190337 -189.23186298 27.08198396 -182.11035156 21.53613281 C-176.78954629 17.39257503 -171.46747349 13.25067363 -166.14111328 9.11425781 C-164.85553345 8.11522102 -163.57061786 7.11532839 -162.28662109 6.11425781 C-158.58237594 3.2264542 -154.85785979 0.36779115 -151.11035156 -2.46386719 C-150.55959961 -2.88120117 -150.00884766 -3.29853516 -149.44140625 -3.72851562 C-136.30494751 -13.6164142 -123.02532221 -21.01778015 -107.11035156 -25.46386719 C-106.046875 -25.78355469 -104.98339844 -26.10324219 -103.88769531 -26.43261719 C-66.38342133 -35.90738114 -29.00483129 -23.84630702 0 0 Z M-104.11035156 8.53613281 C-105.12742188 8.87515625 -106.14449219 9.21417969 -107.19238281 9.56347656 C-115.8466152 12.75068404 -122.87368422 17.97210847 -130.11035156 23.53613281 C-130.7990332 24.06416504 -131.48771484 24.59219727 -132.19726562 25.13623047 C-136.74365219 28.63242833 -141.26274401 32.16264851 -145.77392578 35.70410156 C-149.64850918 38.7422284 -153.53580704 41.76397633 -157.42285156 44.78613281 C-158.17791992 45.37362305 -158.93298828 45.96111328 -159.7109375 46.56640625 C-165.03380151 50.70589393 -170.37546714 54.82001077 -175.72363281 58.92675781 C-182.87788929 64.43036226 -189.98884015 69.99028166 -197.11035156 75.53613281 C-214.3141955 88.93356379 -214.3141955 88.93356379 -221.61035156 94.53613281 C-228.31972761 99.68873056 -235.00213954 104.87545084 -241.66894531 110.08300781 C-244.43573048 112.24204258 -247.2166527 114.37862798 -250.02050781 116.48925781 C-267.55719855 129.77001599 -280.13256427 146.28328613 -283.74627304 168.43412018 C-283.9154481 169.78853063 -284.07537273 171.14412218 -284.22698975 172.50061035 C-284.31068054 173.23671366 -284.39437133 173.97281697 -284.48059821 174.73122644 C-285.29386604 182.41740982 -285.39256704 190.06916705 -285.36914062 197.79199219 C-285.37186106 199.33340112 -285.37542781 200.87480875 -285.37976074 202.41621399 C-285.38876208 206.54641565 -285.38539198 210.67651573 -285.37900257 214.80671883 C-285.37387818 219.16423914 -285.37865166 223.52175174 -285.3817749 227.87927246 C-285.38539603 235.19182876 -285.38066447 242.50434443 -285.37109375 249.81689453 C-285.36021281 258.22673534 -285.3637397 266.63647911 -285.37474656 275.04631758 C-285.38387263 282.3148148 -285.3850789 289.58328311 -285.37986922 296.85178423 C-285.37677857 301.17193214 -285.37625896 305.49203471 -285.3829422 309.81217957 C-285.38879316 313.87698513 -285.38457992 317.94166768 -285.37315369 322.00646019 C-285.37054794 323.48288457 -285.37120044 324.95931963 -285.37567902 326.43573952 C-285.39702857 334.20006225 -285.10717765 341.84377016 -284.23480225 349.55993652 C-284.15942553 350.24211699 -284.08404881 350.92429746 -284.00638795 351.62715006 C-281.52735353 371.55364198 -270.52504537 389.78020715 -254.94238281 402.27441406 C-234.49976655 417.31457708 -213.57173358 419.73984898 -188.92285156 419.59863281 C-187.38313949 419.59360478 -185.84342581 419.5890442 -184.30371094 419.58496094 C-180.57255728 419.57406545 -176.84146502 419.55687363 -173.11035156 419.53613281 C-173.108885 418.90243302 -173.10741844 418.26873323 -173.10590744 417.61583042 C-173.06868473 402.12102602 -173.00946781 386.62647993 -172.92644882 371.13185978 C-172.88681758 363.63844049 -172.85434501 356.14512379 -172.83935547 348.65161133 C-172.82625564 342.11221896 -172.79908205 335.57305385 -172.7557385 329.03378958 C-172.73330853 325.57853671 -172.71742957 322.12356217 -172.71846771 318.66823006 C-172.69812731 285.69031197 -165.83730482 260.3032468 -141.99707031 236.41894531 C-121.78244333 217.42384793 -96.67359735 211.47637316 -69.81347656 212.15722656 C-43.83734325 213.31519002 -21.59314315 226.0478799 -3.98535156 244.78613281 C15.27125945 267.18747264 18.50566263 292.3804403 18.49715328 320.7028954 C18.50032437 324.1889291 18.52602774 327.67480306 18.5491333 331.16075134 C18.5893806 337.73338684 18.60995951 344.30592395 18.62310719 350.87866348 C18.63908452 358.37356101 18.67754391 365.86829357 18.71770048 373.36309445 C18.79967035 388.75405792 18.85402898 404.14498793 18.88964844 419.53613281 C23.41311458 419.55328915 27.93656126 419.56568096 32.46005249 419.57389832 C33.99484589 419.57732864 35.52963709 419.58199953 37.06442261 419.58799744 C64.21261371 419.69133807 88.0510998 415.34164562 107.91308594 395.67285156 C127.47172058 375.46977054 131.04549253 351.76859453 131.03491211 324.84790039 C131.03791152 323.30722982 131.04131582 321.76655999 131.04508972 320.22589111 C131.05385488 316.07476214 131.05626467 311.92365383 131.05690551 307.77251649 C131.05762033 305.16921609 131.05976278 302.56592081 131.06240273 299.96262169 C131.07163172 290.85260057 131.07574073 281.742594 131.07495117 272.63256836 C131.07435119 264.18591585 131.08489365 255.73932737 131.10069484 247.29269105 C131.113838 240.00306872 131.11913224 232.71346714 131.11849576 225.42383307 C131.11824274 221.08683652 131.1209843 216.74989695 131.13167381 212.41291237 C131.14146964 208.32766373 131.14135677 204.24252523 131.13415718 200.15727234 C131.1331254 198.67278568 131.13538853 197.18829173 131.14151764 195.70381737 C131.1715574 187.91274822 130.88961542 180.24597436 130.01118469 172.50346375 C129.93522448 171.82105867 129.85926426 171.1386536 129.78100222 170.43556958 C127.17272716 149.54981801 115.13944466 131.48408364 98.88964844 118.53613281 C95.67552741 116.07224784 92.43086409 113.64992051 89.17651367 111.23950195 C84.49734034 107.76929126 79.91750492 104.20114042 75.38964844 100.53613281 C70.30260101 96.42308683 65.14122674 92.43686978 59.88964844 88.53613281 C53.93383799 84.11099093 48.10375794 79.55660856 42.32763672 74.89990234 C36.25799278 70.01051149 30.08297162 65.26724991 23.88964844 60.53613281 C16.64116641 54.97742431 9.41184332 49.39504808 2.20214844 43.78613281 C1.44651611 43.19856201 0.69088379 42.61099121 -0.08764648 42.00561523 C-4.03417753 38.93535139 -7.97599729 35.85927208 -11.91113281 32.77441406 C-39.51392253 11.15502787 -68.41737796 -4.50967057 -104.11035156 8.53613281 Z " fill="#243F2F" transform="translate(333.1103515625,44.4638671875)"/>
</svg>
