<?xml version="1.0" encoding="UTF-8"?>
<svg version="1.1" xmlns="http://www.w3.org/2000/svg" width="512" height="512">
<path d="M0 0 C3.49852017 2.84401665 7.07448724 5.58898921 10.63964844 8.34863281 C12.16980986 9.53716007 13.699756 10.72596454 15.22949219 11.91503906 C16.37973877 12.80860107 16.37973877 12.80860107 17.55322266 13.72021484 C19.89681897 15.5417059 22.23914271 17.36482058 24.58105469 19.18847656 C31.171884 24.32014562 37.76449846 29.44881564 44.38964844 34.53613281 C53.37492364 41.43574188 62.30407832 48.407644 71.2421875 55.36816406 C82.29663557 63.97706031 82.29663557 63.97706031 93.38964844 72.53613281 C125.89807169 97.51412384 154.92818244 120.43993266 162.46710587 163.11770439 C163.35794232 170.32469569 163.18492696 177.59795323 163.18017578 184.84887695 C163.18616988 186.68334219 163.19297744 188.51780492 163.20053101 190.3522644 C163.21811179 195.30928874 163.22288312 200.2662439 163.22416258 205.2232964 C163.22558962 208.32930092 163.22986972 211.43528817 163.23515701 214.54128838 C163.25363346 225.40310648 163.26183091 236.26487568 163.26025391 247.12670898 C163.25905425 257.20876282 163.28012836 267.29060199 163.31174123 277.37260157 C163.3380063 286.06263951 163.34861688 294.7526078 163.34734309 303.44268507 C163.34683631 308.61759374 163.35236031 313.79231156 163.37369919 318.96718025 C163.39325402 323.84208828 163.39308985 328.71662683 163.37866592 333.59154892 C163.37659768 335.36587892 163.38115792 337.14023311 163.39338684 338.91452217 C163.59909857 370.86858145 152.14099144 397.51266076 130.20214844 420.59863281 C108.285173 441.94062587 79.83934711 452.05163718 49.54199219 451.96972656 C48.03080515 451.97430378 46.51962018 451.97961383 45.00843811 451.98561096 C41.87476008 451.99445096 38.74133826 451.99221781 35.60766602 451.98217773 C31.60301713 451.97059234 27.59923763 451.9910898 23.59470272 452.02009487 C20.48820968 452.03845755 17.38192622 452.03816617 14.27539253 452.03245735 C12.79827195 452.03230471 11.32113667 452.03830133 9.84406853 452.05074883 C7.78440331 452.06569154 5.72636361 452.05496775 3.66674805 452.0378418 C2.4995372 452.03767563 1.33232635 452.03750946 0.12974548 452.03733826 C-5.04203241 451.23732418 -7.90448048 448.79946148 -11.45321655 445.08163452 C-13.96068058 439.71682239 -13.66416322 434.66084324 -13.62451172 428.80810547 C-13.63519936 426.88487457 -13.63519936 426.88487457 -13.64610291 424.92279053 C-13.66141102 422.13992941 -13.66425375 419.35743683 -13.65733719 416.574543 C-13.64650478 412.15887458 -13.66399177 407.74358686 -13.68515015 403.32797241 C-13.71539763 396.32777068 -13.72710194 389.32768224 -13.7307266 382.32742059 C-13.7373606 369.83420216 -13.76677757 357.34106534 -13.81582296 344.84794271 C-13.83215396 340.47468921 -13.83749706 336.10159887 -13.83449072 331.72831833 C-13.82693195 305.14252805 -13.94509164 282.63428729 -33.26660156 262.26269531 C-45.48691184 250.70653233 -61.26503039 244.38836684 -78.11035156 244.53613281 C-93.85137053 245.3491305 -107.02984432 250.3588564 -119.11035156 260.53613281 C-119.75359375 261.06722656 -120.39683594 261.59832031 -121.05957031 262.14550781 C-134.06558629 273.9532167 -138.99368209 290.60600525 -140.11035156 307.53613281 C-140.42470628 316.30678462 -140.39075167 325.08545138 -140.38474655 333.86067581 C-140.38187533 338.27431857 -140.39639992 342.68780628 -140.41372681 347.10140991 C-140.46041204 359.63805924 -140.48471955 372.1746931 -140.49121094 384.71142578 C-140.49496296 391.66500691 -140.51298608 398.61840751 -140.5463053 405.57191122 C-140.56646107 409.95589807 -140.56892108 414.33941771 -140.55802512 418.72343183 C-140.55480273 422.08509451 -140.57751051 425.44649496 -140.59619141 428.80810547 C-140.58393272 430.61754135 -140.58393272 430.61754135 -140.57142639 432.46353149 C-140.67471052 442.88914145 -140.67471052 442.88914145 -145.11035156 447.53613281 C-149.39144969 451.07949258 -152.30677066 452.0385113 -157.82397461 452.05371094 C-159.80345345 452.0726239 -159.80345345 452.0726239 -161.82292175 452.09191895 C-163.25597667 452.084749 -164.68902673 452.07654252 -166.12207031 452.06738281 C-167.61497754 452.07008362 -169.10788304 452.07397092 -170.6007843 452.07897949 C-173.73378201 452.08487064 -176.86632313 452.07634042 -179.99926758 452.05761719 C-183.95761418 452.03508085 -187.91487057 452.04816049 -191.87317753 452.07138538 C-226.80255278 452.24540405 -256.79360616 445.8969039 -283.11035156 421.53613281 C-283.91988281 420.8078125 -284.72941406 420.07949219 -285.56347656 419.32910156 C-300.46885321 405.2836505 -310.32441686 386.31693665 -315.11035156 366.53613281 C-315.28383432 365.82524285 -315.45731709 365.11435289 -315.6360569 364.38192081 C-317.54319618 355.37396338 -317.40687868 346.37984269 -317.40087891 337.22338867 C-317.40687301 335.38892343 -317.41368056 333.5544607 -317.42123413 331.72000122 C-317.43881492 326.76297689 -317.44358625 321.80602172 -317.4448657 316.84896922 C-317.44629274 313.7429647 -317.45057284 310.63697746 -317.45586014 307.53097725 C-317.47433659 296.66915914 -317.48253404 285.80738994 -317.48095703 274.94555664 C-317.47975737 264.8635028 -317.50083149 254.78166363 -317.53244436 244.69966406 C-317.55870943 236.00962611 -317.56932001 227.31965782 -317.56804621 218.62958056 C-317.56753944 213.45467189 -317.57306343 208.27995406 -317.59440231 203.10508537 C-317.61395715 198.23017734 -317.61379297 193.35563879 -317.59936905 188.48071671 C-317.59730081 186.70638671 -317.60186105 184.93203251 -317.61408997 183.15774345 C-317.80481194 153.53210647 -307.5688319 126.16257342 -287.11035156 104.53613281 C-286.57829102 103.9725708 -286.04623047 103.40900879 -285.49804688 102.82836914 C-281.33914861 98.54164072 -276.90143932 94.90288027 -272.11035156 91.34863281 C-270.60013993 90.21206823 -269.09104639 89.07401662 -267.58300781 87.93457031 C-266.83164551 87.36706055 -266.0802832 86.79955078 -265.30615234 86.21484375 C-262.00640337 83.69215374 -258.77625648 81.08659074 -255.54785156 78.47363281 C-249.82695649 73.85460155 -243.98981635 69.41879718 -238.08837891 65.03369141 C-233.54244882 61.64326332 -229.08559157 58.16036525 -224.67285156 54.59863281 C-218.73994355 49.81012378 -212.72185677 45.14795537 -206.65527344 40.53027344 C-201.47122685 36.58253064 -196.31360877 32.6025776 -191.17285156 28.59863281 C-190.43035156 28.02032715 -189.68785156 27.44202148 -188.92285156 26.84619141 C-187.41455772 25.67093563 -185.90642031 24.49547906 -184.3984375 23.31982422 C-178.31702585 18.57902252 -172.23126356 13.84382791 -166.14111328 9.11425781 C-164.85553345 8.11522102 -163.57061786 7.11532839 -162.28662109 6.11425781 C-158.58237594 3.2264542 -154.85785979 0.36779115 -151.11035156 -2.46386719 C-150.55959961 -2.88120117 -150.00884766 -3.29853516 -149.44140625 -3.72851562 C-136.30494751 -13.6164142 -123.02532221 -21.01778015 -107.11035156 -25.46386719 C-106.046875 -25.78355469 -104.98339844 -26.10324219 -103.88769531 -26.43261719 C-66.38342133 -35.90738114 -29.00483129 -23.84630702 0 0 Z " fill="#243F2F" transform="translate(333.1103515625,44.4638671875)"/>
</svg>
