<?xml version="1.0" encoding="UTF-8"?>
<svg version="1.1" xmlns="http://www.w3.org/2000/svg" width="128" height="128">
<path d="M0 0 C8.14151341 4.08539972 11.74923395 12.96362346 15 21 C16.27071901 24.96576043 17.26129854 28.90304808 18 33 C18.18691406 33.99257813 18.37382813 34.98515625 18.56640625 36.0078125 C19.36093858 41.77368949 19.10367667 47.63158918 19.0625 53.4375 C19.05798828 54.64599609 19.05347656 55.85449219 19.04882812 57.09960938 C19.03710145 60.06645789 19.02068896 63.0332027 19 66 C19.64864014 65.59370361 20.29728027 65.18740723 20.96557617 64.76879883 C31.91151927 58.03400187 42.15561998 55.42043797 55 55 C57.67482419 63.02447257 53.34640812 74.02045862 49.875 81.375 C46.40514892 87.79605073 42.22189805 92.93275746 37 98 C36.36320312 98.64582031 35.72640625 99.29164062 35.0703125 99.95703125 C26.66541913 107.96086124 14.14031338 114.1255773 2.375 114.1875 C1.26125 114.125625 0.1475 114.06375 -1 114 C5.16481269 100.78547329 18.96160681 86.5191966 32 80 C32.495 78.515 32.495 78.515 33 77 C20.51374352 84.10640649 10.42276755 93.31043558 2.07006836 104.98681641 C1.08676368 106.35425397 0.04826248 107.6816983 -1 109 C-1.66 109 -2.32 109 -3 109 C-3.33 85.9 -3.66 62.8 -4 39 C-4.66 39 -5.32 39 -6 39 C-6.33 62.1 -6.66 85.2 -7 109 C-7.66 109 -8.32 109 -9 109 C-10.29041914 107.55235738 -11.50767134 106.03910851 -12.6875 104.5 C-13.41066406 103.58089844 -14.13382813 102.66179687 -14.87890625 101.71484375 C-16.11972347 100.12668911 -17.35795937 98.53649979 -18.58984375 96.94140625 C-25.13720954 88.92796364 -34.01640487 82.10200403 -43 77 C-41.82877431 80.51367708 -41.252119 80.68883778 -38.1875 82.5 C-27.45255954 89.44113425 -13.1633217 101.51003489 -9 114 C-21.05293035 115.22989085 -33.71994276 109.30528315 -43 102 C-56.70475116 90.21316918 -64.47344743 75.91438857 -66.01953125 57.828125 C-66 56 -66 56 -65 55 C-51.33380465 54.89256136 -40.41211738 58.85165719 -29 66 C-29.01571045 65.29617187 -29.0314209 64.59234375 -29.04760742 63.8671875 C-29.87743135 20.9544364 -29.87743135 20.9544364 -15.546875 4.3125 C-10.91659142 -0.36105726 -6.43223606 -1.60805901 0 0 Z " fill="#1E3428" transform="translate(69,7)"/>
</svg>
