<?xml version="1.0" encoding="UTF-8"?>
<svg version="1.1" xmlns="http://www.w3.org/2000/svg" width="512" height="512">
<path d="M0 0 C3.97573281 0.00772313 7.95144737 0.00051661 11.92718124 -0.0041585 C18.59722308 -0.00957994 25.2671645 -0.00252041 31.93719101 0.01186323 C39.59216202 0.02818273 47.24689311 0.02289164 54.90185833 0.00638402 C61.53523622 -0.00733496 68.1685429 -0.00910024 74.80193043 -0.00129998 C78.73706161 0.00331996 82.67208094 0.00416178 86.60720444 -0.00590944 C127.31293166 -0.09592057 127.31293166 -0.09592057 145.96160507 6.59047651 C146.8292247 6.89235884 147.69684433 7.19424116 148.59075546 7.50527143 C156.5675872 10.37828599 163.95452688 13.92752867 171.14910507 18.40297651 C171.71613144 18.75134565 172.28315781 19.09971479 172.86736679 19.45864058 C188.22363022 29.10165712 201.93441459 42.79071 211.14910507 58.40297651 C211.71250595 59.35309614 211.71250595 59.35309614 212.28728867 60.32241011 C226.10125208 83.96368056 234.06335793 113.28094726 227.58660507 140.52797651 C222.54456634 156.59173499 212.20971918 169.06148206 197.34832382 176.87563276 C188.01467702 181.30362841 179.96365169 182.7006302 169.7205925 182.67040205 C168.0212566 182.67719872 168.0212566 182.67719872 166.28759068 182.6841327 C162.50090854 182.69676763 158.71437039 182.69515687 154.92766953 182.69350386 C152.20869532 182.69840461 149.48973115 182.7062391 146.7707634 182.71385908 C140.1567226 182.73043898 133.54271747 182.73596728 126.92865763 182.73708384 C121.54899662 182.73803584 116.16934732 182.74215371 110.78969002 182.74848509 C95.51896998 182.76609007 80.248278 182.77532524 64.97754774 182.77382414 C64.1551016 182.77374423 63.33265546 182.77366432 62.48528671 182.77358198 C61.25010142 182.77345934 61.25010142 182.77345934 59.9899629 182.77333422 C46.65229466 182.77252176 33.31473948 182.79165135 19.97710393 182.81985871 C6.26407936 182.84862981 -7.44889015 182.86239666 -21.16194564 182.86067116 C-28.85349893 182.86000867 -36.54493373 182.86543889 -44.23645973 182.88702726 C-50.78658723 182.9052949 -57.33654254 182.90954093 -63.88668456 182.89600842 C-67.22416016 182.88950628 -70.56103829 182.89146067 -73.89852524 182.90671492 C-94.94151455 182.99663478 -112.43011174 181.30269691 -128.43292618 166.06313276 C-141.62226097 151.55273374 -145.95467632 135.55550016 -145.27276993 116.23110151 C-144.75246533 107.40930784 -143.10142578 98.93397126 -140.85089493 90.40297651 C-140.67961075 89.73894819 -140.50832657 89.07491987 -140.33185196 88.39076948 C-132.58503562 59.46485679 -112.09293503 34.09035876 -86.85089493 18.40297651 C-86.27967911 18.04655073 -85.70846329 17.69012495 -85.1199379 17.32289839 C-77.6727737 12.78820799 -69.89017714 9.4529292 -61.66339493 6.59047651 C-60.88794327 6.31244184 -60.11249161 6.03440718 -59.31354141 5.74794722 C-40.13455453 -0.54794285 -19.92950681 -0.05100588 0 0 Z M-91.85089493 66.40297651 C-105.84775507 83.30267623 -113.31538114 105.58899213 -112.08185196 127.47768354 C-111.07530119 135.86844393 -105.40284739 141.51185242 -99.16339493 146.59047651 C-91.7178192 150.66447078 -83.3119204 150.69558118 -74.99689102 150.6569438 C-73.95001303 150.66006378 -72.90313503 150.66318376 -71.82453346 150.66639829 C-68.34107465 150.67433107 -64.85779232 150.66807306 -61.37433243 150.66176558 C-58.86694614 150.66447753 -56.35956065 150.66803961 -53.85217667 150.67238569 C-47.76344986 150.68054361 -41.67478766 150.67937035 -35.58606005 150.67356041 C-30.63500725 150.66903275 -25.68396825 150.66843578 -20.73291397 150.67060804 C-19.67353845 150.67106774 -19.67353845 150.67106774 -18.5927614 150.67153673 C-17.15776205 150.67217622 -15.7227627 150.67282464 -14.28776336 150.67348191 C-0.85046828 150.67917691 12.58679946 150.67264036 26.02409005 150.66188118 C37.5390827 150.65294642 49.05403502 150.6544987 60.56902695 150.6637187 C73.96018703 150.67443601 87.35132318 150.67862767 100.74248695 150.67249417 C102.17203267 150.67185711 103.60157839 150.67122837 105.03112411 150.67060804 C105.73437935 150.67029949 106.43763458 150.66999094 107.16220057 150.66967304 C112.10390654 150.66795048 117.04559726 150.67085171 121.98730087 150.67556715 C128.64562846 150.68178131 135.3038684 150.6773196 141.96219254 150.66577864 C144.4026362 150.66313909 146.84308628 150.66388507 149.28352737 150.66830397 C152.62080436 150.67378862 155.95783948 150.66688975 159.29510117 150.6569438 C160.25523432 150.66140524 161.21536747 150.66586668 162.20459557 150.67046332 C172.27483949 150.61246032 181.55185983 149.52176928 189.14910507 142.40297651 C196.40897566 132.59605048 197.36125823 123.01480952 195.86492538 111.14955854 C192.10246974 87.98473445 180.3481697 66.36753282 161.41180038 52.0934062 C157.45257325 49.29878497 153.35114343 46.81406346 149.14910507 44.40297651 C148.27383163 43.90024214 147.3985582 43.39750776 146.49676132 42.87953901 C131.66052424 34.94443652 115.48504413 33.09557766 98.90789413 33.12831831 C97.53455965 33.12395735 96.16122758 33.11876967 94.78789902 33.11283064 C91.09753443 33.09957593 87.40727309 33.09884683 83.71688938 33.10139394 C80.61614167 33.10247323 77.51541405 33.0975559 74.41467071 33.09278852 C67.08752639 33.08173941 59.76043335 33.08122945 52.43328476 33.08730268 C44.92098615 33.09333452 37.40887521 33.08104097 29.89660859 33.05973262 C23.40525201 33.04200968 16.91395458 33.03613208 10.42257476 33.03937036 C6.56399402 33.04116692 2.70554709 33.03871286 -1.15301132 33.02465582 C-37.08228286 32.90505267 -66.56338863 38.50542304 -91.85089493 66.40297651 Z " fill="#243F2F" transform="translate(213.85089492797852,281.59702348709106)"/>
<path d="M0 0 C21.27525758 17.60710972 35.49388164 41.16598419 38.78515625 68.75 C41.01091346 97.34000808 33.84594962 124.18044246 15.52734375 146.44921875 C-1.2433231 165.93083333 -25.03295955 179.8349675 -50.9375 182.3125 C-81.02615737 184.33154247 -107.17630918 177.13763418 -130.3828125 157.546875 C-150.67192446 139.80165781 -162.83552641 115.23122437 -164.9375 88.3125 C-166.36488596 61.988209 -159.25595434 35.12498767 -141.53613281 15.10571289 C-139.07531624 12.4333099 -136.52723402 9.85947898 -133.9375 7.3125 C-133.1021875 6.47847656 -132.266875 5.64445312 -131.40625 4.78515625 C-95.76509789 -29.06236645 -38.25047597 -29.4510707 0 0 Z M-112.375 32.1875 C-125.5252137 46.15690734 -132.75965185 64.81224042 -132.22265625 84.02734375 C-130.94453064 98.75205109 -126.09802278 111.73642355 -116.9375 123.3125 C-116.29167969 124.14652344 -115.64585937 124.98054688 -114.98046875 125.83984375 C-104.62890399 138.30397275 -88.17055755 147.73668457 -71.9375 149.3125 C-51.20121325 150.78691715 -33.38520034 146.08587638 -17.20703125 132.390625 C-3.3151928 119.67038738 4.95797659 103.28560784 6.265625 84.375 C6.57077687 64.43841148 -0.32568884 46.12053038 -14.0625 31.625 C-42.22627937 4.69074442 -84.44754038 5.61205053 -112.375 32.1875 Z " fill="#243F2F" transform="translate(318.9375,68.6875)"/>
</svg>
