<?xml version="1.0" encoding="UTF-8"?>
<svg version="1.1" xmlns="http://www.w3.org/2000/svg" width="512" height="512">
<path d="M0 0 C3.97573281 0.00772313 7.95144737 0.00051661 11.92718124 -0.0041585 C18.59722308 -0.00957994 25.2671645 -0.00252041 31.93719101 0.01186323 C39.59216202 0.02818273 47.24689311 0.02289164 54.90185833 0.00638402 C61.53523622 -0.00733496 68.1685429 -0.00910024 74.80193043 -0.00129998 C78.73706161 0.00331996 82.67208094 0.00416178 86.60720444 -0.00590944 C127.31293166 -0.09592057 127.31293166 -0.09592057 145.96160507 6.59047651 C146.8292247 6.89235884 147.69684433 7.19424116 148.59075546 7.50527143 C156.5675872 10.37828599 163.95452688 13.92752867 171.14910507 18.40297651 C171.71613144 18.75134565 172.28315781 19.09971479 172.86736679 19.45864058 C188.22363022 29.10165712 201.93441459 42.79071 211.14910507 58.40297651 C211.71250595 59.35309614 211.71250595 59.35309614 212.28728867 60.32241011 C226.10125208 83.96368056 234.06335793 113.28094726 227.58660507 140.52797651 C222.52277941 156.70012397 212.14807302 168.95455156 197.27801132 176.94594526 C187.99128604 181.33814127 179.90347935 182.70045262 169.7205925 182.67040205 C168.0212566 182.67719872 168.0212566 182.67719872 166.28759068 182.6841327 C162.50090854 182.69676763 158.71437039 182.69515687 154.92766953 182.69350386 C152.20869532 182.69840461 149.48973115 182.7062391 146.7707634 182.71385908 C140.1567226 182.73043898 133.54271747 182.73596728 126.92865763 182.73708384 C121.54899662 182.73803584 116.16934732 182.74215371 110.78969002 182.74848509 C95.51896998 182.76609007 80.248278 182.77532524 64.97754774 182.77382414 C64.1551016 182.77374423 63.33265546 182.77366432 62.48528671 182.77358198 C61.25010142 182.77345934 61.25010142 182.77345934 59.9899629 182.77333422 C46.65229466 182.77252176 33.31473948 182.79165135 19.97710393 182.81985871 C6.26407936 182.84862981 -7.44889015 182.86239666 -21.16194564 182.86067116 C-28.85349893 182.86000867 -36.54493373 182.86543889 -44.23645973 182.88702726 C-50.78658723 182.9052949 -57.33654254 182.90954093 -63.88668456 182.89600842 C-67.22416016 182.88950628 -70.56103829 182.89146067 -73.89852524 182.90671492 C-94.60941116 182.99521565 -111.94580273 181.37025945 -127.90948868 166.53969526 C-142.14559254 150.8713878 -145.82766525 134.05206343 -145.05060196 113.41274214 C-144.53010966 105.5684523 -142.85185412 97.98793025 -140.85089493 90.40297651 C-140.67961075 89.73894819 -140.50832657 89.07491987 -140.33185196 88.39076948 C-132.58503562 59.46485679 -112.09293503 34.09035876 -86.85089493 18.40297651 C-86.27967911 18.04655073 -85.70846329 17.69012495 -85.1199379 17.32289839 C-77.6727737 12.78820799 -69.89017714 9.4529292 -61.66339493 6.59047651 C-60.88794327 6.31244184 -60.11249161 6.03440718 -59.31354141 5.74794722 C-40.13455453 -0.54794285 -19.92950681 -0.05100588 0 0 Z " fill="#243F2F" transform="translate(213.85089492797852,281.59702348709106)"/>
<path d="M0 0 C21.27525758 17.60710972 35.49388164 41.16598419 38.78515625 68.75 C41.01031706 97.3323473 33.85355183 124.20541498 15.515625 146.45703125 C-1.96663845 166.80660861 -26.75694698 180.41865314 -53.75854492 182.53344727 C-84.24141268 183.76977127 -109.81361353 175.78222969 -132.9375 155.3125 C-133.98164063 154.39404297 -133.98164063 154.39404297 -135.046875 153.45703125 C-153.94389293 135.73162843 -163.75735998 110.07700537 -165.140625 84.56640625 C-165.48331237 57.5797758 -157.32128005 31.55725944 -138.44824219 11.81420898 C-136.95836402 10.29909064 -135.45248599 8.80247443 -133.9375 7.3125 C-133.1021875 6.47847656 -132.266875 5.64445312 -131.40625 4.78515625 C-95.76509789 -29.06236645 -38.25047597 -29.4510707 0 0 Z " fill="#243F2F" transform="translate(318.9375,68.6875)"/>
</svg>
